<?xml version="1.0" encoding="iso-8859-1"?>
<!-- Generator: Adobe Illustrator 19.0.0, SVG Export Plug-In . SVG Version: 6.00 Build 0)  -->
<svg version="1.1" id="Layer_1" xmlns="http://www.w3.org/2000/svg" xmlns:xlink="http://www.w3.org/1999/xlink" x="0px" y="0px"
	 viewBox="0 0 511.999 511.999" style="enable-background:new 0 0 511.999 511.999;" xml:space="preserve">
<g>
	<g>
		<path d="M466.469,495.767V433.06c0-10.054-8.18-18.233-18.233-18.233h-27.297V190.231h-16.231v174.007h-52.591v16.231h52.591
			v34.356H107.29v-34.356h52.591v-16.231H107.29V89.057c0-6.683,5.436-12.121,12.119-12.121h80.657
			c-8.887,11.796-17.949,31.477-17.949,62.708V387.53h16.231V139.646c0-43.05,18.971-58.985,24.491-62.708h66.316
			c5.52,3.725,24.491,19.658,24.491,62.708V387.53h16.231V139.646c0-31.231-9.063-50.912-17.949-62.708h80.657
			c6.683,0,12.119,5.436,12.119,12.12v75.883h16.231V89.057c0-15.633-12.718-28.352-28.351-28.352H287.358
			c4.469-6.284,7.108-13.956,7.108-22.237C294.466,17.256,277.209,0,255.998,0s-38.468,17.257-38.468,38.468
			c0,8.281,2.639,15.953,7.108,22.237H119.408c-15.633,0-28.351,12.718-28.351,28.352v325.768H63.763
			c-10.055,0-18.234,8.18-18.234,18.233v62.708H8.115v16.231h495.769v-16.231H466.469z M255.999,16.231
			c12.262,0,22.237,9.976,22.237,22.237c0,12.261-9.976,22.237-22.237,22.237c-12.261,0.001-22.237-9.975-22.237-22.237
			C233.762,26.206,243.738,16.231,255.999,16.231z M450.238,495.769H61.76V433.06c0-1.085,0.918-2.002,2.003-2.002h384.473
			c1.085,0,2.002,0.917,2.002,2.002V495.769z"/>
	</g>
</g>
<g>
	<g>
		<rect x="185.178" y="455.302" width="141.646" height="16.231"/>
	</g>
</g>
<g>
	<g>
		<rect x="347.059" y="455.302" width="30.353" height="16.231"/>
	</g>
</g>
<g>
	<g>
		<rect x="215.531" y="131.528" width="30.353" height="16.231"/>
	</g>
</g>
<g>
	<g>
		<rect x="245.884" y="161.881" width="30.353" height="16.231"/>
	</g>
</g>
<g>
	<g>
		<rect x="124.473" y="313.645" width="30.353" height="16.231"/>
	</g>
</g>
<g>
	<g>
		<rect x="357.177" y="111.293" width="30.353" height="16.231"/>
	</g>
</g>
<g>
	<g>
		<rect x="134.59" y="455.302" width="30.353" height="16.231"/>
	</g>
</g>
<g>
	<g>
		<rect x="220.584" y="364.243" width="70.823" height="16.231"/>
	</g>
</g>
<g>
</g>
<g>
</g>
<g>
</g>
<g>
</g>
<g>
</g>
<g>
</g>
<g>
</g>
<g>
</g>
<g>
</g>
<g>
</g>
<g>
</g>
<g>
</g>
<g>
</g>
<g>
</g>
<g>
</g>
</svg>
